<svg xmlns="http://www.w3.org/2000/svg" xmlns:xlink="http://www.w3.org/1999/xlink" enable-background="new 0 0 28.539 29.123" height="31" version="1.1" width="31" xml:space="preserve"><rect id="backgroundrect" width="100%" height="100%" x="0" y="0" fill="none" stroke="none"/><g class="currentLayer"><title>Layer 1</title><g id="svg_1" class="" fill="#ffffff" fill-opacity="1"><path d="M8.63045764732361,8.988999999999999 c3.215,-3.215 8.132,-3.6740000000000004 11.847,-1.4020000000000001 c-1.259,1.246 -2.7110000000000003,2.702 -2.7110000000000003,2.702 c-1.016,1.219 0.125,1.9220000000000002 0.7050000000000005,1.904 l6.789,-0.002000000000000002 c0.35800000000000026,0 0.6510000000000007,0.002000000000000002 0.6510000000000007,0.002000000000000002 s0.29600000000000026,0 0.6550000000000007,0 h1.3170000000000002 c0.35900000000000026,0 0.6510000000000007,-0.29300000000000026 0.6520000000000007,-0.6530000000000007 V2.205 c0.04200000000000004,-0.8540000000000005 -0.8960000000000007,-1.6820000000000008 -1.864,-0.7290000000000005 c0,0 -1.602,1.561 -2.708,2.657 C18.305457647323607,0 10.331457647323608,0.468 5.220457647323609,5.579000000000001 C2.238457647323609,8.561 0.8474576473236088,12.517 1.014457647323609,16.423999999999996 h4.83 C5.673457647323609,13.754 6.589457647323611,11.03 8.63045764732361,8.988999999999999 z" id="svg_2" fill="#ffffff" fill-opacity="1"/><path d="M24.695457647323607,14.801 c0.171,2.67 -0.7450000000000006,5.394 -2.786,7.4350000000000005 c-3.216,3.215 -8.131,3.6740000000000004 -11.846,1.4020000000000001 c1.258,-1.246 2.71,-2.702 2.71,-2.702 c1.016,-1.219 -0.125,-1.9220000000000002 -0.7050000000000005,-1.903 l-6.789,0.002000000000000002 c-0.35800000000000026,0 -0.6510000000000007,-0.002000000000000002 -0.6510000000000007,-0.002000000000000002 s-0.29600000000000026,0 -0.6550000000000007,0 H2.6544576473236092 c-0.35900000000000026,0 -0.6510000000000007,0.29300000000000026 -0.6520000000000007,0.6520000000000007 v9.335 c-0.041000000000000036,0.8530000000000005 0.8960000000000007,1.681 1.8650000000000002,0.7280000000000005 c0,0 1.601,-1.561 2.708,-2.656 c5.66,4.134 13.633000000000001,3.6660000000000004 18.743,-1.445 c2.981,-2.982 4.373,-6.938 4.207,-10.845 H24.695457647323607 z" id="svg_3" fill="#ffffff" fill-opacity="1"/></g></g></svg>