<svg width="512" height="512" xmlns="http://www.w3.org/2000/svg">

 <g class="currentLayer">
  <title>Layer 1</title>
  <polygon class="selected" id="svg_1" points="  259.216,29.942 330.27,173.919 489.16,197.007 374.185,309.08 401.33,467.31 259.216,392.612 117.104,467.31 144.25,309.08   29.274,197.007 188.165,173.919 " stroke-miterlimit="10" stroke-linejoin="round" stroke-linecap="round" stroke-width="37.6152" stroke="#ffffff" fill="#ffffff"/>
  <path stroke="null" id="svg_2" fill="#F00" fill-rule="evenodd" d="m255.000008,0.005c141.864005,0 257.00001,114.688001 257.00001,256.000001s-115.136004,256.000001 -257.00001,256.000001s-257.00001,-114.688001 -257.00001,-256.000001s115.136004,-256.000001 257.00001,-256.000001zm0,48.761174c-114.843024,0 -208.050074,92.842667 -208.050074,207.240534c0,47.858347 16.355823,91.905707 43.741402,126.999894l291.797811,-290.662402c-35.226135,-27.27936 -79.44727,-43.5712 -127.489138,-43.5712l0,-0.006827zm164.305246,80.238934l-291.797811,290.662402c35.231275,27.27936 79.450696,43.5712 127.495991,43.5712c114.843024,0 208.050074,-92.842667 208.050074,-207.240534c0,-47.858347 -16.355823,-91.905707 -43.741402,-126.999894l-0.006853,0.006827z"/>
 </g>
 <g>
  <title>Layer 2</title>
  <rect fill="none" y="0" x="0" height="100%" width="100%" id="backgroundrect"/>
 </g>
 <g>
  <title>background</title>
  <rect fill="none" id="canvas_background" height="402" width="582" y="-1" x="-1"/>
 </g>
</svg>